<?xml version="1.0" encoding="UTF-8" standalone="no"?><!-- Generator: Gravit.io --><svg xmlns="http://www.w3.org/2000/svg" xmlns:xlink="http://www.w3.org/1999/xlink" style="isolation:isolate" viewBox="0 0 621.133 83.059" width="621.133pt" height="83.059pt"><defs><clipPath id="_clipPath_DSBEXTkAyrTN9c01h6Ho0dBwodJVRGt2"><rect width="621.133" height="83.059"/></clipPath></defs><g clip-path="url(#_clipPath_DSBEXTkAyrTN9c01h6Ho0dBwodJVRGt2)"><g><g><path d=" M 360.646 79.016 C 359.814 78.659 359.576 77.946 359.576 76.876 L 359.576 59.867 C 359.576 59.154 360.053 58.796 360.766 59.154 C 368.497 63.672 376.228 65.458 383.958 65.458 C 391.452 65.458 394.068 63.435 394.068 60.58 C 394.068 57.607 392.046 56.18 384.077 52.968 L 378.726 50.827 C 365.166 45.476 359.457 38.339 359.457 27.635 C 359.457 15.503 368.497 3.49 390.262 3.49 C 397.636 3.49 404.773 4.562 409.292 6.464 C 410.006 6.583 410.244 7.178 410.244 8.011 L 410.244 24.424 C 410.244 24.78 409.888 25.376 408.936 25.019 C 403.702 22.044 396.328 20.618 389.31 20.618 C 382.056 20.618 379.676 23.235 379.676 25.851 C 379.676 28.111 380.748 30.014 389.668 33.344 L 394.425 35.128 C 411.314 41.314 415.001 48.926 415.001 58.916 C 415.001 74.854 401.204 83.059 382.412 83.059 C 373.254 83.059 366 81.632 360.646 79.016 Z " fill="rgb(235,16,0)"/></g><g><path d=" M 454.665 79.253 C 454.665 80.087 454.427 80.681 453.594 81.039 C 450.026 82.584 446.339 83.059 441.463 83.059 C 430.045 83.059 423.385 77.351 423.385 65.101 L 423.385 38.221 L 416.486 38.221 C 415.773 38.103 415.534 37.864 415.534 37.031 L 415.534 23.353 C 415.534 22.52 415.773 22.164 416.723 22.164 L 423.503 22.164 C 423.859 18.357 424.217 11.936 424.93 8.368 C 425.05 7.655 425.406 7.177 426.119 7.059 L 443.842 4.919 C 444.437 4.799 444.793 4.799 444.793 5.751 C 444.555 9.319 444.317 16.336 444.198 22.164 L 453.951 22.164 C 454.783 22.164 455.022 22.401 455.022 23.115 L 455.022 37.269 C 455.022 37.983 454.783 38.221 454.07 38.221 L 444.198 38.221 L 444.198 60.105 C 444.198 65.22 445.507 67.121 450.145 67.121 C 451.334 67.121 451.929 67.003 453.594 66.647 C 454.07 66.528 454.665 66.647 454.665 67.599 L 454.665 79.253 Z " fill="rgb(235,16,0)"/></g><g><path d=" M 477.76 51.779 C 477.76 61.414 481.804 67.122 488.108 67.122 C 494.054 67.122 497.86 62.009 497.86 52.137 C 497.86 43.097 494.529 37.03 487.63 37.03 C 481.804 37.03 477.76 42.145 477.76 51.779 Z  M 518.793 51.661 C 518.793 71.285 505.948 83.059 487.75 83.059 C 466.222 83.059 456.708 68.074 456.708 52.137 C 456.708 34.295 469.077 21.093 488.226 21.093 C 508.802 21.093 518.793 36.081 518.793 51.661 Z " fill="rgb(235,16,0)"/></g><g><path d=" M 539.722 22.164 C 540.674 22.164 541.03 22.521 541.387 23.472 C 542.101 25.02 542.695 28.349 542.934 31.084 C 547.215 25.256 554.589 21.332 562.201 21.093 C 563.034 21.093 563.271 21.332 563.271 22.164 L 563.271 40.837 C 563.271 41.67 563.034 42.026 562.083 42.026 C 555.303 41.789 547.573 43.81 543.885 47.617 L 543.885 80.682 C 543.885 81.633 543.647 81.87 542.695 81.87 L 524.498 81.87 C 523.547 81.87 523.19 81.514 523.19 80.562 L 523.19 40.005 C 523.19 34.772 522.953 27.754 522.595 22.997 C 522.595 22.402 522.833 22.164 523.547 22.164 L 539.722 22.164 Z " fill="rgb(235,16,0)"/></g><g><path d=" M 596.75 44.286 C 599.366 44.286 601.27 44.167 601.626 44.049 C 601.746 39.886 599.129 35.842 593.895 35.842 C 588.067 35.842 585.451 40.243 585.333 44.286 L 596.75 44.286 Z  M 585.57 57.489 C 586.046 62.009 590.446 66.409 600.675 66.409 C 606.383 66.409 610.785 65.577 615.423 63.911 C 615.779 63.793 616.137 63.793 616.137 64.625 L 616.137 77.707 C 616.137 78.778 615.899 79.135 615.305 79.491 C 610.071 81.753 604.362 82.822 596.037 82.822 C 572.843 82.822 564.399 67.479 564.399 52.731 C 564.399 36.437 574.39 21.093 594.371 21.093 C 613.639 21.093 621.133 35.01 621.133 47.855 C 621.133 51.066 620.894 54.158 620.537 56.061 C 620.418 56.537 620.062 56.894 619.467 57.013 C 617.921 57.251 613.877 57.489 607.217 57.489 L 585.57 57.489 Z " fill="rgb(235,16,0)"/></g><g><path d=" M 45.08 25.692 L 29.499 64.395 L 47.893 64.395 L 54.005 81.859 L 0 81.859 L 33.885 0.899 L 57.209 0.899 L 90.983 81.859 L 67.523 81.859 L 45.08 25.692 Z  M 293.56 45.579 L 293.78 44.737 C 293.992 43.911 294.248 43.16 294.536 42.513 C 295.565 40.212 296.931 38.473 298.593 37.349 C 300.269 36.221 302.135 35.647 304.148 35.647 C 305.901 35.647 307.591 36.091 309.177 36.968 C 310.764 37.844 312.116 39.215 313.191 41.035 C 313.82 42.095 314.256 43.359 314.489 44.796 L 314.62 45.579 L 293.56 45.579 Z  M 329.576 37.592 C 328.012 34.051 325.891 31.021 323.265 28.587 C 320.637 26.147 317.621 24.276 314.313 23.019 C 310.997 21.76 307.496 21.121 303.911 21.121 C 298.643 21.121 293.731 22.38 289.309 24.856 C 284.887 27.337 281.292 30.892 278.623 35.431 C 275.957 39.965 274.6 45.408 274.6 51.609 C 274.6 56.508 275.489 60.943 277.247 64.791 C 279 68.641 281.449 71.923 284.536 74.552 C 287.633 77.189 291.255 79.225 295.308 80.6 C 299.371 81.98 303.852 82.681 308.616 82.681 C 312.067 82.681 315.496 82.291 318.808 81.521 C 321.976 80.789 325.041 79.684 327.931 78.236 L 327.931 63.001 C 325.041 64.292 322.251 65.325 319.617 66.071 C 316.669 66.907 313.6 67.333 310.493 67.333 C 307.124 67.333 304.121 66.759 301.577 65.627 C 299.003 64.485 296.927 62.719 295.408 60.381 C 294.944 59.672 294.54 58.859 294.199 57.964 L 293.852 57.047 L 331.504 57.047 C 331.567 56.095 331.652 55.056 331.756 53.901 C 331.868 52.593 331.927 51.268 331.927 49.96 C 331.927 45.3 331.135 41.139 329.576 37.592 M 249.011 59.829 L 249.011 59.833 C 247.735 61.964 246.049 63.613 243.987 64.723 C 241.937 65.828 239.731 66.391 237.435 66.391 C 236.104 66.391 234.743 66.215 233.389 65.869 L 232.881 65.743 L 232.881 38.257 L 233.408 38.14 C 234.845 37.812 236.4 37.647 238.023 37.647 C 240.315 37.647 242.455 38.145 244.387 39.133 C 246.337 40.127 247.932 41.677 249.132 43.744 C 250.323 45.803 250.925 48.449 250.925 51.609 C 250.925 54.931 250.283 57.695 249.011 59.829 M 267.684 37.943 C 266.043 34.172 263.787 31.008 260.979 28.541 C 259.568 27.301 258.075 26.217 256.512 25.296 C 254.948 24.376 253.312 23.616 251.617 23.027 C 248.216 21.841 244.711 21.239 241.2 21.239 C 238.517 21.239 236.001 21.517 233.713 22.065 L 232.881 22.263 L 232.881 0 L 213.184 0 L 213.184 78.101 C 216.761 79.705 220.496 80.915 224.284 81.697 C 228.221 82.505 232.567 82.915 237.2 82.915 C 241.335 82.915 245.433 82.236 249.388 80.892 C 253.325 79.557 256.912 77.544 260.048 74.901 C 263.172 72.277 265.661 68.969 267.455 65.083 C 269.248 61.191 270.156 56.58 270.156 51.371 C 270.156 46.239 269.324 41.723 267.684 37.943 M 187.833 59.896 C 187.316 60.965 186.715 61.909 186.036 62.709 C 185.353 63.513 184.597 64.184 183.761 64.705 C 182.095 65.748 180.233 66.273 178.229 66.273 C 176.225 66.273 174.365 65.748 172.697 64.7 C 171.031 63.657 169.66 62.04 168.625 59.896 C 167.611 57.78 167.093 55.069 167.093 51.843 C 167.093 48.54 167.611 45.808 168.631 43.727 C 169.66 41.624 171.031 40.028 172.697 38.985 C 174.369 37.943 176.229 37.412 178.229 37.412 C 180.229 37.412 182.091 37.943 183.761 38.985 C 185.429 40.028 186.8 41.624 187.829 43.727 C 188.853 45.812 189.371 48.544 189.371 51.843 C 189.371 55.065 188.853 57.775 187.833 59.896 Z  M 204.461 34.905 C 201.72 30.335 198.012 26.82 193.441 24.456 C 188.853 22.088 183.735 20.888 178.229 20.888 C 172.724 20.888 167.605 22.088 163.017 24.456 C 158.447 26.82 154.721 30.335 151.94 34.909 C 149.157 39.48 147.747 45.179 147.747 51.843 C 147.747 58.508 149.157 64.207 151.94 68.776 C 154.721 73.352 158.452 76.888 163.021 79.288 C 167.605 81.697 172.724 82.915 178.229 82.915 C 183.659 82.915 188.755 81.697 193.379 79.288 C 197.989 76.888 201.72 73.352 204.461 68.781 C 207.207 64.207 208.596 58.508 208.596 51.843 C 208.596 45.179 207.207 39.48 204.461 34.905 M 123.577 65.644 L 123.056 65.765 C 121.604 66.103 120.091 66.273 118.553 66.273 C 116.333 66.273 114.212 65.752 112.244 64.727 C 110.253 63.693 108.639 62.099 107.444 59.995 C 106.253 57.905 105.651 55.2 105.651 51.96 C 105.651 48.648 106.231 45.888 107.376 43.763 C 108.536 41.605 110.163 40.005 112.203 39.008 C 114.203 38.028 116.464 37.529 118.908 37.529 C 120.324 37.529 121.721 37.696 123.065 38.019 L 123.577 38.145 L 123.577 65.644 Z  M 123.577 0 L 123.577 21.827 L 122.777 21.675 C 120.876 21.305 118.904 21.121 116.908 21.121 C 113.084 21.121 109.281 21.783 105.611 23.081 C 101.948 24.38 98.644 26.371 95.787 29 C 92.928 31.628 90.587 34.9 88.829 38.72 C 87.077 42.531 86.187 47.025 86.187 52.076 C 86.187 57.439 87.153 62.125 89.059 66.008 C 90.964 69.9 93.495 73.127 96.577 75.599 C 99.669 78.079 103.192 79.94 107.053 81.127 C 110.931 82.312 114.877 82.915 118.787 82.915 C 123.573 82.915 128 82.488 131.932 81.639 C 135.725 80.82 139.5 79.589 143.159 77.98 L 143.159 0 L 123.577 0 Z " fill="rgb(235,16,0)"/></g></g></g></svg>